<?xml version="1.0" standalone="no"?>
<!DOCTYPE svg PUBLIC "-//W3C//DTD SVG 20010904//EN"
 "http://www.w3.org/TR/2001/REC-SVG-20010904/DTD/svg10.dtd">
<svg version="1.0" xmlns="http://www.w3.org/2000/svg"
 width="180.000000pt" height="169.000000pt" viewBox="0 0 180.000000 169.000000"
 preserveAspectRatio="xMidYMid meet">

<g transform="translate(0.000000,169.000000) scale(0.100000,-0.100000)"
fill="#000000" stroke="none">
<path d="M0 845 l0 -845 900 0 900 0 0 845 0 845 -900 0 -900 0 0 -845z m1330
248 c0 -374 -7 -431 -60 -540 -54 -109 -169 -202 -312 -253 -49 -17 -53 -17
-102 0 -189 65 -321 203 -355 372 -6 30 -12 210 -13 406 l-3 352 423 0 422 0
0 -337z"/>
<path d="M522 1043 c4 -334 5 -362 25 -414 47 -125 127 -209 260 -271 99 -46
109 -46 219 7 86 41 166 116 206 191 54 100 58 138 58 506 l0 338 -386 0 -385
0 3 -357z m100 227 c3 -96 10 -110 55 -110 37 0 53 36 53 122 0 77 0 78 25 78
25 0 25 -1 25 -91 0 -50 -5 -99 -11 -111 -16 -29 -74 -51 -119 -43 -62 11 -83
42 -88 134 -5 95 -1 111 32 111 23 0 24 -2 28 -90z m357 66 c25 -22 27 -58 6
-76 -14 -11 -13 -14 5 -27 20 -14 27 -57 12 -79 -15 -23 -52 -34 -111 -34
l-61 0 0 121 0 121 64 -4 c45 -3 71 -10 85 -22z m239 18 c15 -4 22 -14 22 -29
0 -22 -3 -23 -54 -18 -48 5 -55 3 -70 -18 -22 -32 -21 -84 4 -109 21 -21 74
-27 100 -10 9 6 17 5 22 -3 15 -24 7 -36 -32 -48 -82 -25 -158 23 -167 105 -6
51 20 105 59 124 26 12 81 15 116 6z m-423 -276 c28 1 73 2 100 3 28 1 69 -2
93 -6 28 -5 63 -3 97 5 45 11 62 11 107 -2 46 -13 53 -18 56 -43 3 -27 3 -28
-30 -19 -18 4 -59 7 -90 6 -57 -2 -100 -2 -218 -1 -33 0 -85 0 -115 0 -30 0
-81 1 -112 1 -32 1 -73 -2 -91 -6 -33 -9 -33 -8 -30 19 2 23 10 31 43 41 23 8
61 11 90 7 28 -3 73 -5 100 -5z m-44 -100 c30 -8 48 -8 80 1 48 14 52 12 44
-21 -10 -39 -65 -52 -138 -31 -52 14 -62 14 -112 0 -56 -16 -56 -16 -59 23 -3
32 114 50 185 28z m180 -139 c11 -78 21 -144 23 -146 1 -2 33 49 71 112 37 64
69 115 70 113 2 -2 -10 -57 -25 -123 -16 -66 -29 -124 -30 -130 0 -5 34 24 75
65 41 41 75 72 75 68 0 -4 -16 -44 -35 -89 -19 -45 -33 -84 -31 -86 1 -2 29
16 60 38 53 38 58 40 51 18 -18 -58 -81 -162 -122 -200 -24 -22 -78 -57 -120
-76 l-75 -36 -57 19 c-71 24 -161 84 -197 131 -33 43 -98 172 -90 180 3 3 27
-12 53 -33 26 -21 54 -42 60 -47 7 -5 -5 35 -27 89 l-40 98 32 -29 c18 -16 52
-48 76 -69 23 -22 42 -37 42 -32 0 4 -11 57 -25 118 -14 61 -24 112 -22 114 1
2 32 -46 67 -105 36 -60 68 -104 71 -98 4 7 14 74 24 150 10 76 20 136 22 133
3 -3 14 -69 24 -147z m89 138 c19 0 59 4 88 8 33 5 68 3 97 -5 37 -10 45 -17
45 -36 0 -27 -10 -29 -72 -13 -34 9 -55 8 -100 -4 -44 -11 -67 -13 -98 -5 -35
9 -40 14 -40 40 0 26 2 28 23 21 12 -4 38 -7 57 -6z m-322 -108 c3 -24 -1 -27
-40 -32 -24 -4 -55 -9 -70 -13 -25 -6 -27 -4 -25 22 2 22 9 29 42 40 61 19 89
14 93 -17z m499 19 c49 -12 53 -15 53 -41 0 -27 -2 -29 -27 -22 -16 4 -47 9
-70 12 -43 5 -50 14 -37 47 7 19 13 19 81 4z m-337 -23 c0 -15 -8 -29 -22 -36
-18 -10 -24 -8 -40 11 -25 31 -23 38 15 43 17 2 35 5 40 5 4 1 7 -9 7 -23z
m158 15 c23 0 23 0 5 -30 -13 -23 -22 -28 -38 -24 -24 8 -35 22 -35 48 0 14 5
17 23 12 12 -3 32 -6 45 -6z"/>
<path d="M896 1313 c-3 -4 -6 -17 -6 -30 0 -16 6 -23 19 -23 23 0 42 22 33 36
-9 14 -38 24 -46 17z"/>
<path d="M890 1190 c0 -25 4 -30 24 -30 13 0 29 7 36 15 17 20 -3 45 -36 45
-20 0 -24 -5 -24 -30z"/>
</g>
</svg>
